<svg xmlns="http://www.w3.org/2000/svg" width="14.96" height="27.72" viewBox="56.52 50 14.96 27.72"><path d="M68.18 55.19c1.03.03 2 0 2.68-.3.4-.82.56-1.86.62-3-.19 0-.06-.33-.2-.39-.04-.2-.28-.2-.32-.4-.27-.16-.45-.42-.72-.6l-2.16-.5c-.85.05-1.9-.1-2.58.1-2.62-.03-4 1.13-5.26 2.4-.02.08 0 .2-.1.2-.58 1.58-.13 3.62-.21 5.58.1.43.1.96.2 1.4-1 .29-2.2.38-3.4.5-.31.32-.18 1.08-.2 1.68.08.59.27 1.06.4 1.6.22.2.6.4.83.5.07.03.08.08.1.1.51.26 1.46 0 2.28.1-.14 1.97.25 3.91 0 5.68 0 .32.29.38.2.8 0 .96-.06 1.98.21 2.68-.29.46-.5.99-.41 1.8.12.01.11.16.1.3-.07.47.64.17.52.7.16.45-.43.18-.42.5v.89c.53.28 1.47.18 2.27.2.9-.42 2.19-.48 2.79-1.2.45.24.91-.01 1.23-.2-.01-.31.28-.33.2-.7 0-.32-.16-.49-.1-.89v-2.89c-.2-2.3-.04-4.94-.3-7.18.88-.1 1.91-.07 2.57-.4.36-.44.38-1.22.52-1.89.18-.23.22-.58.2-1 .2-.2.08-.72.11-1.1-.14-.59-.17-1.3-.82-1.38-.89-.24-2.05.6-3 .3.05-1.14-.29-2.34 0-3.39.75-.18 1.45-.4 2.17-.6zm-3.82 4.78c.12.25.26.49.42.7.08.02.2 0 .2.1 1.2.06 2.2-.07 3.1-.3 0 1-.27 1.73-.52 2.5-.66.04-1.47.3-1.96.2-.27.16-.37.5-.62.69-.05.44.14.5 0 .8-.2.13-.05.6-.2.8v1.49c.08.28-.15.26-.1.5v3.48c-.1.28.14.26.1.5v2.99c.06.27-.14.8.1.9-.07.36-.41-.02-.82.1-.53.12-.93.36-1.55.4.11-.36.32-.63.3-1.1.06-.38-.36-.31-.5-.5.19-.63.55-1.1.71-1.78.2-.52.72-1.3.31-1.8-.52-.1-.52.3-.82.4-.02.08 0 .2-.1.2-.03.08 0 .2-.1.2 0 .12-.16.06 0 0 .01-.08 0-.2.1-.2.02-.08 0-.2.1-.2v-.3a5.7 5.7 0 0 0 .83-2c.19-.27.28-.65.4-.99.16-.26.35-.87.11-1.2-.52.04-.8.3-.93.7-.32-.19.16-.43.1-.7.14-.22.17-.56.31-.8.2-.4.57-1.3 0-1.59-.43-.02-.6.21-.72.5-.21.2-.43.38-.52.7-.37-.07-.14-.73-.2-1.1-.07-.52.12-.9 0-1.2-.56-.8-2.03-.1-3.2-.3-.1-.3-.22-.98-.1-1.19 1.04-.08 2.48.2 3.2-.2.02-.07 0-.2.1-.2.1-.72-.27-1-.52-1.4.24-.8.04-2.01.1-2.98.24-.14.34-.41.52-.6.11-.95.68-1.47.72-2.49-.27 0-.6-.05-.61.2-.3-.11-.39.48-.52.2-.11-.54.25-.63.31-1 .6-.41 1.21-.82 1.86-1.2 1.74-.24 4.64-.44 6.08.2.05.62-.29.86-.2 1.5h-1.55c-1.1.24-1.99.67-3 1-.23.07-.27.33-.5.4-.04.4-.23.64-.32 1-.08 1.42.13 2.58.1 3.97z"/></svg>
