<svg xmlns="http://www.w3.org/2000/svg" width="34.37" height="34.37"><path d="M.29 14.07a17.24 17.24 0 0 0 0 6.3l4.13-3.21-4.13-3.1zM24.4 1.58A17.2 17.2 0 0 0 9.15 2l7.51 5.63 7.74-6.04zm9.5 11.6l-4.81 3.74 4.94 3.7c.5-2.45.46-4.99-.13-7.45zM9.2 32.41a17.21 17.21 0 0 0 15.74.12l-8.1-6.07-7.63 5.95zM7.91 14.43L1.68 9.77c-.32.67-.6 1.35-.82 2.05l5.3 3.98 1.75-1.37zM18.6 25.1l8.33 6.24a17.18 17.18 0 0 0 1.74-1.37l-8.33-6.23-1.75 1.36zm-7.19-13.4l-7.4-5.54c-.47.55-.9 1.13-1.28 1.72l6.93 5.19 1.75-1.36zM22.1 22.38l8.08 6.05c.48-.54.9-1.1 1.3-1.7l-7.64-5.72-1.75 1.36zm-7.19-13.4L7.2 3.2a17.69 17.69 0 0 0-1.71 1.4l7.67 5.74 1.75-1.36zM25.6 19.65l6.96 5.22c.33-.66.62-1.34.86-2.03l-6.08-4.55-1.75 1.36zm.85-16.95L.88 22.64c.23.7.51 1.38.84 2.06L28.24 4.02a17 17 0 0 0-1.8-1.31zm4.29 3.92c-.3-.38-.61-.75-.94-1.1l-27 21.05a17.14 17.14 0 0 0 1.28 1.71l27.09-21.1-.42-.56zM32.3 9L5.55 29.84c.55.5 1.12.96 1.71 1.38l25.96-20.23c-.26-.68-.57-1.34-.92-2z"/></svg>