<svg xmlns="http://www.w3.org/2000/svg" width="21.77" height="21.33" viewBox="53.12 53.19 21.77 21.33">
  <path fill="#231F20" d="M74.88 65.34c-.01-2.4-.34-4.8-.3-7.14-.02-.79-.09-1.53-.15-2.28-.1-.3-.12-.7-.16-1.06-.26-.17-.22-.64-.45-.83-.42-.24-1.2-.12-1.75-.22-.65-.03-1.25-.12-1.9-.16-1.93-.1-3.97-.07-6-.07-2 0-3.94-.15-5.69-.38h-2.2c-.1 0-.1.1-.22.07-.6.04-1.08.2-1.6.3a2.8 2.8 0 0 1-.68.31c-.14.2-.52.15-.61.38-.19.21.19.45 0 .6v.92c.17.13.03.58.08.83v.99c-.02 1.28.13 2.4.07 3.72.47 2.76.38 6.54.08 9.41.15.58.36 1.1.45 1.75.26.48.34 1.13.69 1.52.5.2 1.23.18 1.9.23.38.1.66.3 1.13.3 2.85-.21 5.5-.16 8.43-.23 2.7.24 5.8.19 8.28-.23.19-.13.12-.53.22-.76-.05-.38.21-.45.23-.76.13-2.4.16-4.79.15-7.21zM61.9 59.1c.76-.15 1.48-.34 2.43-.3.7.07 1.29.28 1.9.45.11.19-.25.55.15.69v.07c.06.02.15 0 .15.08.44.03.8.17 1.06.38.45.05.54.47 1.14.3-.1.21-.08.52-.07.83.32 1.19.47 2.81.3 4.25-.17.17-.22.45-.3.69-.32.32-.49.78-.84 1.06-.1.24-.25.4-.45.53-.12.22-.21.46-.46.53-.3.17-.58.01-.84-.07-.44.16-.9.3-1.21.6-.82-.1-1.65-.17-2.43-.3a1.94 1.94 0 0 0-.84-.3 2 2 0 0 0-.83-.46c-.1-.13-.34-.12-.46-.23-.2-.03-.23-.23-.45-.23-.12-.41-.45-.62-.53-1.06-.23-.33-.31-.8-.46-1.22-.04-1.43.1-2.69.38-3.8.35-.58.78-1.08 1.14-1.66.25.02.36-.1.38-.3.3.05.43-.08.68-.08.26 0 .27-.3.46-.45zm-1.67-2.73c-.12-.27-.07-.7-.08-1.06 0-.29.28-.28.3-.54 0-.07-.09-.05-.14-.07.12-.15.7-.1.83 0 .13.54-.35.45-.53.68.01.17.32.03.46.08.02.85-.06 1.5 0 2.2h-.46c0 .23.23.23.46.23-.06.28.09.36.07.6-.23.16-.72.05-1.06.08-.1-.6.23-1.38.15-2.2zm-.68-1.6c.08 0 .13.02.15.08.18.25 0 .68-.08.91-.17-.18-.02-.68-.07-.99zm.15 1.83c-.13-.07-.17-.24-.15-.46.13.07.16.24.15.46zm0 1.36c-.06.14-.08-.04-.08-.15.06-.14.08.05.08.15zm-.15.23c.17-.02.08.22.22.23 0 .2-.28.18-.38.07.04-.1.12-.19.16-.3zm-2.36-1.22c0-.1.02-.2-.07-.22-.08-.74.13-1.42 0-1.98.25-.15.77-.04 1.14-.07v1.14c-.1.06-.2.1-.38.07-.06.28.32.13.38.3 0 .86-.06 1.78.15 2.44-.57-.06-.9.1-1.44.07.1-.61-.02-1.43.53-1.6-.02-.13-.26-.04-.3-.15zm-.53 0c-.2.03-.22-.53-.08-.6.33 0 .25.5.08.6zm-.15 1c.08-.32.03-.31.07-.69.23.01.26.77-.07.68zm.23-2.06c-.27.06-.28-.26-.16-.38.27-.05.28.27.16.38zm0-1.14c.03.16-.06.2-.08.3-.17.03-.08-.21-.23-.22.03-.1.2-.06.3-.08zm-.23 3.73c.15-.04.1.34-.08.22a.36.36 0 0 0 .08-.22zm-.68-3.73c.02.26-.44.32-.38 0h.38zm-1 .08c-.03.22-.32.18-.37.38-.22-.17.08-.47.38-.38zm-.45.76c.23-.2.45-.41.69-.6-.02-.13.07-.14.07-.24h.23c.1.38-.26.3-.3.53.02.13-.08.14-.08.23.02.34.12.59.08.99-.27 0-.28.28-.61.23.02-.43-.13-.68-.08-1.14zm.08 3.26V57.3l.6-.53c.3.49.19 1.39.46 1.9-.27.15-.75.1-1.06.22zm18.22 11.09c-.1.95-.16 1.97-.38 2.8-2.89.13-6.02.01-8.88.16-.2.04-.27-.03-.23-.23-.25 0-.26.25-.53.23.2-.34.44-.9.15-1.3-.8.02-.8.83-1.14 1.3-.68-.05-1.14.13-1.82.07.18-.7.75-1.02.9-1.74-.39-.55-.98.14-1.2.46-.2.48-.56.8-.76 1.29h-.99c.24-.47.49-.93.76-1.37.17-.51.62-.74.68-1.37-.16-.28-.42-.03-.68 0-.12.18-.27.34-.38.53-.23.38-.5.72-.69 1.14-.18.21-.33 0-.53.23-.38.27-.58.74-.98.99-.18-.06.04-.36.15-.38.04-.18-.1-.55.07-.61.07-.37.22-.65.38-.91.12-.74.52-1.2.69-1.9-.56.1-.68.65-.99.99-.21.44-.54.77-.68 1.29-.18-.13-.03-.58-.08-.84.12-.58.3-1.11.38-1.74.13-.22.17-.54.23-.84.17-.2.04-.6-.08-.76-.22.03-.37.14-.45.3-.2-.02-.2.51-.3.31-.05-2.59-.46-4.81-.46-7.44.02-.33-.19-.42-.23-.68 1.63.03 3.12.09 4.78.23-.09.14-.2.25-.3.38-.15.07-.23.17-.38.3-.6 1.65-.98 3.98-.6 6.15.22.58.58 1.03.98 1.44.9.49 1.63 1.15 2.5 1.67 1.7.36 3.84.37 5.55 0 .23-.12.48-.22.68-.38 1.37-1.24 2.75-2.46 2.96-4.86v-1.36c-.2-1.6-.69-2.9-1.75-3.65.34-.22 1.1.05 1.67.08h.69c.4-.03.93-.06 1.44 0 .15.19.11.54.23.76-.06 1.68-.2 3.3-.15 5.09.1.45.12.98.23 1.44-.1.97-.24 1.89-.46 2.73zm.38-11.16c-.64-.12-1.23-.29-1.9-.38.07-.33.8-.01.99-.23.38-.22.3-.92.3-1.5.03-.36.12-.65.08-1.07-.4-.95-1.78-.42-2.89-.46-.22.72-.47 1.8-.3 2.66.17.49 1.02.3 1.52.46-.14.33-.69.05-.99.07-.3-.08-.7-.05-.99-.15-2.28.08-4.28 0-6.52.15.11-1.25.06-2.46-.08-3.64h3.11c-.34.36-.91.5-1.29.83-.44.25-.86.5-1.14.91.25.14.54-.24.76-.38.36-.07.48-.38.84-.45.42-.44 1.1-.63 1.67-.91.37-.02.7.01.98.07 1.29.01 2.46.13 3.8.08.61.15 1.45.07 1.97.3.11.3.23.58.3.92.02.98-.14 1.81-.22 2.72zm-5.85-3.72c.11-.05 0-.1 0 0zm0 0c-.52.15-1.01.35-1.36.68.48-.2 1.06-.3 1.36-.68zm1.07.6c.1-.04-.01-.09 0 0zm-1.75.92c.73-.16 1.18-.6 1.75-.91-.44.01-.6.31-1 .37-.2.22-.6.26-.75.54zm-.68-.84c-.11.05 0 .1 0 0zm-.69.6c.11-.04 0-.08 0 0zm-.07.08c.06.02.07-.03.07-.07-.06-.02-.07.03-.07.07zm-.08.08c.07.01.07-.03.08-.08-.07 0-.07.03-.08.08zm-.83.6c.34-.13.61-.34.83-.6-.35.13-.61.35-.83.6zm2.27 1c.54-.05.75-.42 1.22-.54.28-.3.78-.38.99-.76-.56.03-.77.4-1.22.54-.28.3-.75.4-.99.76zm-2.27-1c-.32-.07-.02.23 0 0zm-.54.39c.03.02.12-.04.08-.08-.02-.02-.12.04-.07.08zm2.81.6c-.1.05.01.1 0 0zm-1.14 1.83c-.22-.24-.67-.24-.98-.38-.7-.04-1.23.09-1.75.23l-.9.45c-.27.17-.45.42-.77.53-.2.23-.35.51-.68.6 0 .23-.18.29-.3.39-.1.11-.1.31-.23.38-.01.12.03.29-.08.3.1 1.51.3 2.95.68 4.18.3.62.98.84 1.45 1.29.58.3 1.32.44 2.12.53.28-.05.55-.1.91-.08 1.21-.2 2.1-.73 2.81-1.44.1-.28.25-.5.46-.68-.26-.67.3-1.1.45-1.6 0-1.33-.2-2.47-.6-3.4-.26-.58-.92-.76-1.37-1.14-.06-.02-.15 0-.15-.08-.27-.14-.73-.24-1.07-.08zm-3.41 4.32c-.11-.06-.11-.24-.15-.38.25-.07.12.24.15.38zm.08.3c.04-.1.07 0 .07.08-.04.12-.08 0-.07-.07zm.45-2.04c.02-.09.08-.05.08 0-.02.08-.08.04-.08 0zm1.67-2.13c-.2.26.04.58.08.84-.3-.04-.58-.89-.08-.84zm.38 3.95c-.04-.04.06-.1.08-.08.04.04-.06.1-.08.08zm.76 2.88c.03-.1.07.01.15 0-.02.1-.15.08-.15 0zm2.2-2.58c-.23-.05-.14.21-.38.16.07-.16.12-.34.23-.46.13.02.17.13.15.3zm-1.14-3.8c.21.13.44.22.6.39.1.22.25.36.39.53.06.77.18 1.49.15 2.35-.26.1-.44.27-.68.38-.78 0-1.36-.21-1.9-.45l-.53-.76v-1.06c.17-.19.32-.4.45-.61.23-.13.51-.2.46-.6-.04-.07-.08-.13-.08-.24.16.05.25.16.38.23.32.02.41-.2.76-.15z"/>
</svg>
