<svg xmlns="http://www.w3.org/2000/svg" width="54.16" height="23.18" viewBox="612.53 500.39 54.16 23.18"><path d="M652.84 506.1a48.11 48.11 0 0 0-12.35-1.67c-2.9 0-5.46.25-7.71.63l-6.79-4.67h-13.46l5.82 6.19h8.44c-4.58 1.6-6.76 3.51-6.76 3.51v3.78s2.32 1.91 6.94 3.52h-8.63l-5.8 6.18h13.45l6.81-4.7c2.27.4 4.83.66 7.69.66 4.52 0 8.7-.7 12.36-1.67a10.62 10.62 0 0 1-1.92-5.88c0-2.14.74-4.1 1.91-5.88zm3.43 1.03c-1.29 1.6-1.97 3.25-1.97 4.84 0 1.6.68 3.24 1.97 4.85 6.4-2.16 10.42-4.84 10.42-4.84s-4.02-2.68-10.42-4.85z"/></svg>