<svg xmlns="http://www.w3.org/2000/svg" width="32.67" height="32.49" viewBox="239.66 239.76 32.67 32.49"><path d="M242.56 272.24h12.5v-13.9h-12.5v13.9zm28.18-23.62h-7.33c.52-.26.98-.55 1.4-.84 1.58-1.14 2.42-2.57 2.41-4 0-1.17-.55-2.2-1.36-2.9a4.58 4.58 0 0 0-3.01-1.12c-1.22 0-2.35.42-3.32 1.07-1.46.97-2.6 2.45-3.43 4.06l-.11.24c-.3-.62-.65-1.23-1.04-1.8a9.66 9.66 0 0 0-2.5-2.5 6 6 0 0 0-3.32-1.07 4.65 4.65 0 0 0-4.57 4.43c0 .73.21 1.5.65 2.18a6.55 6.55 0 0 0 2.63 2.25h-6.58c-.88 0-1.6.71-1.6 1.6v5.89h15.4v-7.49h1.87v7.49h15.4v-5.9c0-.88-.7-1.59-1.59-1.59m-22.36-2.34c-.62-.39-1-.78-1.22-1.13-.22-.36-.3-.66-.3-.96 0-.5.25-1.05.7-1.46a2.37 2.37 0 0 1 1.56-.67h.01c.69 0 1.37.23 2.05.68a8.36 8.36 0 0 1 2.64 3.19c.34.67.61 1.39.79 2.08-3.08-.32-5.08-1-6.23-1.73m10.54-1.62a7.37 7.37 0 0 1 1.88-1.92 3.69 3.69 0 0 1 2.05-.68c.58 0 1.12.22 1.5.55.38.33.57.74.57 1.17 0 .51-.27 1.26-1.46 2.13-1.14.83-3.1 1.67-6.13 2.27.29-1.2.85-2.48 1.59-3.52m-1.98 27.58h12.5v-13.9h-12.5v13.9z"/></svg>
