<svg xmlns="http://www.w3.org/2000/svg" width="31.97" height="37.3" viewBox="8.01 4.35 31.97 37.3">
  <path fill="#231F20" d="M24 41.65c8.83 0 15.99-7.16 15.99-15.99A15.99 15.99 0 0 0 24 41.65zM12.64 20.78a4.44 4.44 0 0 0 6.95 3.66l-.03.34a4.44 4.44 0 0 0 8.88 0l-.04-.34a4.44 4.44 0 0 0 4.41-7.66 4.43 4.43 0 1 0-4.4-7.65l.03-.34a4.44 4.44 0 0 0-8.88 0l.04.34a4.44 4.44 0 0 0-4.41 7.66 4.42 4.42 0 0 0-2.55 3.99zM24 12.34a4.44 4.44 0 1 1 0 8.89 4.44 4.44 0 0 1 0-8.89zM8.01 25.66c0 8.83 7.16 15.99 15.99 15.99 0-8.83-7.16-15.99-15.99-15.99z"/>
</svg>
