<svg xmlns="http://www.w3.org/2000/svg" width="23.49" height="20.17" viewBox="52.25 53.77 23.49 20.17"><path d="M75.7 57.85c-.22-.36-.9-.27-1.4-.37h-1.11c.14-.35.34-.64.52-.96.05-.44.25-.73.22-1.26.13-.17.18-.42.3-.6.1-.14.24-.47.07-.66-.05-.22-.3-.25-.6-.22a.51.51 0 0 0-.21.15c-.45.43-.78 1.01-1.27 1.4 0 .01-.06 0-.07 0-.09.01-.03.05-.07.08l-.37.22c-.29.18-.55.45-.9.52a6.07 6.07 0 0 0-1.85-.37c-1.15.1-2.3.22-3.03.74-.92.35-1.48 1.04-2.15 1.63-.05.32-.35.4-.37.74 0 .05-.02.1-.08.08.05.24-.05.34-.07.52 0 .13.2.43 0 .52-.82-.12-1.49-.63-2.15-.97-.72-.36-1.47-.6-2.07-1.1a6.03 6.03 0 0 1-1.78-1.34c-.21-.32-.54-.5-.67-.9-.38-.16-.17-.9-.74-.88-.31-.05-.34.2-.44.37-.07.22-.36.23-.37.52 0 .04-.02.08-.08.07-.17 1.1-.53 2-.52 3.26.13.42.35.74.6 1.04-.42.05-.72.22-.9.52-.05 1.07.38 1.65.75 2.3.13.38.35.68.59.96.02.23.2.29.3.44.02.1.12.13.15.23-.04.1.28.18.07.22-.41.13-1.02.07-1.26.37-.11.28-.11.83 0 1.11.03.24.28.26.3.52.5.42 1.08.75 1.63 1.11.57.17 1.2.27 1.85.37-.1.34-.34.55-.6.74-.78.38-1.84.48-2.74.74-.55.04-.95.23-1.55.22-.34.13-.86.08-1.12.23-.12.07-.1.1-.22.22-.13.41.11.74.45.89 0 .25.22.27.37.37.09.18.25.29.44.37.55.47 1.27.76 1.93 1.11.83.18 1.65.38 2.52.52.9.12 1.9.12 2.82.22h.96c.51.13 1.23.06 1.85.08.1-.1.32-.08.52-.08.52-.27 1.2-.38 1.63-.74.58-.24 1-.64 1.56-.89.87-.76 1.94-1.32 2.52-2.37.2-.19.35-.44.44-.74.27-.15.39-.45.6-.66.4-.41.7-.93 1.03-1.4.32-.5.58-1.06.9-1.56-.02-.4.3-.48.29-.89.2-.23.18-.66.37-.88-.03-.26.03-.42.07-.6.05-1.28-.04-2.42-.3-3.4.6-.16 1.19-.3 1.64-.6.52-.2 1-.6.8-1.28zm-3.4 4.08c-.15.86-.62 1.41-1.04 2 .06.38-.1.54-.07.9a4.3 4.3 0 0 0-.37 1.03c-.2.27-.34.6-.52.89-.37.55-.78 1.05-1.19 1.56-.38.56-.91.96-1.33 1.48-.42.49-.94.88-1.41 1.33-.47.17-.89.4-1.26.67-.23.09-.46.18-.67.3-.17.14-.5.14-.66.28a24 24 0 0 1-3.56.15c-1.03-.1-2.11-.16-3.04-.37-.92-.19-1.51-.71-2.3-1.04.16-.24.64-.15.97-.22.03-.16.4 0 .44-.15.26.06.29-.1.52-.07.56-.2 1.23-.3 1.7-.6.29-.13.41-.42.67-.58.04-.2.1-.34.23-.45.04-.27.2-.44.14-.81.11-.21.3-.35.3-.67-.07-.15-.13-.32-.3-.37-.02-.2-.37-.07-.44-.22-.26.03-.42-.03-.6-.08-.15-.04-.48.1-.51-.07-.84-.02-1.3-.43-1.86-.74.44-.26 1.04-.35 1.34-.74.51-.08 1.06-.13 1.1-.67 0-.72-.76-.66-1.32-.81-.78-.66-1.2-1.68-1.78-2.52.24-.16.56-.23.74-.45.45.06.54-.25.67-.52.01-.49-.34-.6-.6-.81a3.49 3.49 0 0 1-.66-.74c0-.82-.03-1.65.07-2.37.06-.02.07.02.07.07.23.44.56.77.82 1.19.53.35.92.85 1.55 1.1.46.42 1.11.63 1.56 1.05.6.26 1.16.57 1.7.88.67.2 1.06.68 2 .6l.6-.3c.26-.46-.06-1.08.15-1.63.25-.66.8-1.03 1.26-1.48.29-.16.55-.34.81-.52.35-.1.68-.22.97-.37.37-.02.7-.08 1.03-.15h1.26c.25.05.48.12.74.15.21.14.38.31.67.37.79.7 1.27 1.7 1.4 3.04-.12.48.06.87 0 1.48zm.3-5.63c-.14.34-.24.7-.6.81-.02-.1-.12-.12-.15-.22 0-.2.21-.18.3-.3.16-.08.24-.24.44-.3 0-.08.11-.04 0 0zm-5.49 3.04c.16.13.28.3.52.37.1.22.31.33.6.37.04-.15.34-.05.36-.22.18-.03.17-.23.3-.3-.02-.55-.13-1-.37-1.33-.76-.43-1.68.04-1.41 1.1z"/></svg>