<svg xmlns="http://www.w3.org/2000/svg" width="148.05" height="72.71">
  <path d="M143.16 31.4a38.94 38.94 0 0 1-4.65 2.77c.03-1.74-.12-3.46-.6-5.12l.15-1c.38-3.01.66-7.13-2-9.23-.34-.26-1.25-.03-1.92.28a4.64 4.64 0 0 0-.5-.42l-.23-.73c-.03-.12-.17-.2-.36-.22.29-.38.26-.82-.42-1.1-.38-.14-.76-.28-1.14-.4-.07-.08-.13-.1-.17-.06-.95-.3-1.9-.53-2.87-.7.14-.34.4-.82.55-1 .14-.16.28-.3.43-.44l.2-.17.06-.06.08-.06c.38-.29.85-.87.23-1.2-.57-.31-1.51-.15-2.01.23a6.55 6.55 0 0 0-2.1 2.37 50.08 50.08 0 0 0-6.07-.08.76.76 0 0 0 .14-.25c.18-.59-.9-.53-1.19-.5-1.56.21-3.12.42-4.69.61 1.37-3.77 3.09-8.57 1-12.26-1.19-2.1-3.9-2.58-6.1-2.65-2.43-.08-4.9.46-7.03 1.63-4.76 2.62-7.11 7.71-8.21 13.14-.5-.66-2.3-.42-2.65.47-.12.32-.22.64-.32.97-.16.18-.28.39-.35.64l-.04.17h-.2l.07-.3c.15-.12.25-.24.28-.37.57-2.3 1.16-4.6 1.95-6.82.27-.76-2.51-.4-2.8.42-.43 1.2-.8 2.4-1.13 3.62-.16.08-.35.2-.42.33l-.05.1a.9.9 0 0 0-.46-.17v-.96c0-.43-2.83-.04-2.83.75v1.57c-.16.07-.32.16-.47.27l-.19.17a.37.37 0 0 0-.12.25l-.02.07-.05.07c-.13.13-.19.33-.03.47.19.16.5.16.74.16l.14-.02v.47h-.67l-.41-.05c-.02-.39-.68-.46-1.35-.33v-.15c-.1-.6-.18-1.2-.23-1.8.23-.07.47-.17.68-.3.15-.1.32-.23.32-.43v-.2c0-.18-.4-.2-.5-.2-.19-.01-.39 0-.58.04-.08-1.31-.09-2.62-.09-3.93 0-.84-2.82-.31-2.82.76 0 1.78.01 3.57.2 5.34h-.28v-1.52c0-1.05-1.3-1.22-2.14-.81.31-.26.49-.62.37-1.04-.4-1.41-.78-2.83-.98-4.29-.18-1.4-3.01-.67-2.82.76.2 1.46.57 2.87.97 4.29.24.82 1.34.88 2.1.5a1 1 0 0 0-.36.77v.63c-.2-.1-.44-.16-.77-.16-1.06 0-1.68.88-1.4 1.47l-.5-.08a14.1 14.1 0 0 1-.7-3.83c-.03-.94-1.28-1.05-2.12-.67a.57.57 0 0 0-.05-.17c-.38-.8-.56-1.67-.78-2.53-.33-1.35-3.15-.6-2.82.75.16.64.3 1.28.52 1.9l-.06.01c-.3.09-.6.2-.85.4-.83.07-1.83.56-1.75 1.2l.2 1.43-1.63.26c-.3-.8-.5-1.6-.62-2.45-.13-.92-1.56-.85-2.33-.26a22.56 22.56 0 0 0-3.12-5.76c-2.63-3.44-7.1-4.61-11.25-3.8a8.97 8.97 0 0 0-5.04 2.65c-1.2 1.36-1.35 3.1-1.17 4.8.16 1.5.61 4.01 1.58 5.99-.35-.02-.7.04-.94.13-.29.12-.57.25-.84.4-1.94.02-3.87.01-5.8-.08-4.18-.2-8.3-.86-12.5-.74-.92.03-1.53.72-1.46 1.26a4.31 4.31 0 0 0-2.15 2.29 53.99 53.99 0 0 0-5.33-3.21c-.69-.35-3.3.7-2.29 1.22 1.84.94 3.57 2.07 5.28 3.22.51.34 1.32.13 1.84-.07l.17-.08a9.72 9.72 0 0 0 .24 4.5c.03.1.1.2.17.26-.02.34-.02.68 0 1.02v.16c-.4.2-.72.48-.77.84a37.38 37.38 0 0 0-.3 4.23c-.27.2-.46.47-.49.8a49.9 49.9 0 0 0 .47 9.95c.19 2.7.7 5.34 1.17 8l.17 1.25a9.7 9.7 0 0 0-.24 3.48c-.88.17-1.73.87-1.23 1.62a9.1 9.1 0 0 0 2.6 2.65 2.3 2.3 0 0 0-1.87.55c-.81.81-1.71 1.53-2.53 2.34-.43.42-.31.94.3 1.08a2.3 2.3 0 0 0 1.99-.54c.81-.8 1.71-1.53 2.53-2.34.25-.24.3-.51.2-.73 3.21 1.74 7.24 1.27 11.12.95a34.55 34.55 0 0 0-2.17 5c-.26.71 2.5.37 2.8-.44a33.4 33.4 0 0 1 2.1-4.9c3.74.12 7.48.12 11.22.05.15.19.41.3.74.34 3.27.31 6.5-.1 9.7-.7 4.78-.23 9.57-.53 14.36-.8 7.52-.2 15.05-.35 22.58-.33.1.11.2.22.32.32.27.26.62.34.98.33l.2.02a69.72 69.72 0 0 1 2.7.19l2.35.2c.17.22.5.35.79.37 3.8.25 7.61.52 11.42.7.14.23.54.34.82.34 7.07.06 15.28 2.8 21.56-1.73.5-.36.27-.88-.26-.99a2 2 0 0 0-.33-.03l.02-.04a60.72 60.72 0 0 0 2.95-8.56c.36-.2.63-.5.64-.86.05-1.19.2-2.4.38-3.64.16-.88.3-1.77.44-2.66.38-2.16.8-4.36 1.01-6.54a50.04 50.04 0 0 0 6.63-3.82c1.56-1.11-.79-1.88-1.84-1.13zM87.83 16.35l-.13.12.23-.93h.11l-.2.81z"/>
  <path d="M63.26 12.63c.13.2.56.21.75.21.38 0 .76-.08 1.11-.22.4-.17 1.1-.56.77-1.07-.36-.56-.6-1.2-.98-1.76-.12-.2-.56-.21-.75-.21-.38 0-.76.08-1.1.22-.4.17-1.1.56-.77 1.07.36.56.6 1.2.97 1.76zM20.68 10.9c.22.65 1.11.65 1.65.51.47-.13 1.4-.62 1.18-1.26-.21-.62-.44-1.3-.9-1.78-.48-.5-1.32-.42-1.9-.15-.41.19-1.18.84-.7 1.35.39.4.48.77.67 1.34zM30.66 13.9c.84 0 3.07-1.28 1.19-1.28-.85 0-3.08 1.28-1.19 1.28zM122.56 12.27c.35.08.72.04 1.06-.06.32-.08.7-.23.94-.47.35-.36.73-.73.96-1.18.1-.2.17-.4 0-.59-.2-.2-.51-.24-.77-.25a2.7 2.7 0 0 0-1.1.22c-.26.1-.62.3-.76.56-.1.18-.22.35-.35.5l-.02.04a.58.58 0 0 0-.03.03l-.2.2c-.15.15-.34.36-.28.61.07.24.34.35.55.4zM135.86 17.7c.63-.07 1.4-.25 1.9-.67 1.31-1.1 2.6-2.25 3.62-3.64.29-.4-1.05-.24-1.12-.23-.53.1-1.32.27-1.66.74a19.72 19.72 0 0 1-3.4 3.38c-.49.41.45.43.66.41zM146.74 44.77h-4.87c-.62 0-1.48.47-1.56 1.14-.09.74.76.92 1.3.92h4.88c.61 0 1.47-.47 1.55-1.14.1-.74-.75-.92-1.3-.92zM57.02 60.78c-.5.08-1.41.3-1.64.83a34.65 34.65 0 0 0-1.36 3.9c-.21.73 2.57.33 2.8-.45.38-1.33.82-2.62 1.36-3.9.22-.52-.97-.4-1.16-.38zM61.6 63.38c-.35 0-.7.06-1.03.15-.33.09-.67.2-.97.38-.14.08-.33.2-.33.39l-.02.35a.76.76 0 0 1-.12.27c-.06.08-.1.18.02.25.2.12.5.08.71.06.38-.03.75-.12 1.1-.25.24-.08.61-.2.8-.4a.96.96 0 0 0 .28-.5c.04-.18.05-.36.05-.54 0-.16-.42-.16-.49-.16zM116.65 67.05c-.35-.68-3.04.33-2.82.76.84 1.64 1.94 3.12 2.92 4.68.44.68 3.04-.42 2.83-.76-.99-1.56-2.08-3.04-2.93-4.68zM120.74 64.71c-.29-.58-1.06-.56-1.62-.41-.35.1-1.49.6-1.2 1.17l1.17 2.34c.3.59 1.07.56 1.62.41.35-.1 1.49-.6 1.2-1.17l-1.17-2.34zM5.67 43.1c-1.49.36-3 .58-4.48.98-.54.15-1.34.64-1.16 1.32.18.67 1.13.7 1.66.56 1.48-.4 3-.62 4.48-.98.54-.13 1.34-.65 1.16-1.31-.18-.69-1.12-.7-1.66-.57z"/>
  <g>
    <g fill="#FFF">
      <path d="M43.75 40.1c-.08-2.7-.51-5.39-.48-8.1.03-2.2.4-4.45-.36-6.56l.14-.71c.2-1.06-3.3-.5-3.85.47-.34.28-.52.62-.38.96l.1.26a78.93 78.93 0 0 1-2.64 9.5c-.4 1.2-.9 2.37-1.3 3.57-.6-1.12-1.19-2.22-1.67-3.41-1.38-3.47-2.63-6.97-4.32-10.3.19-1.54-3.23-1.38-3.9.03-.83 1.71-.72 3.44-.45 5.26.3 2.06.35 4.09.38 6.17.05 4.01.36 8.02.42 12.03-.36.4-.47.89-.1 1.38.17.22.37.39.58.56.92.73 3.54.1 3.53-1.28-.01-4.16-.31-8.32-.42-12.47L29 36.23l.18.44c.64 1.62 1.32 3.2 2.2 4.7.88 1.49 1.32 3.09 1.82 4.72-.19.21-.3.46-.23.71-.04.18.07.3.25.36.65.56 1.86.28 2.53 0 .3-.12.57-.27.84-.43.34-.21.89-.69.73-1.17l-.09-.28c.48-1.28.72-2.61.98-3.97.27-1.44.79-2.8 1.3-4.17l.16 1.88c.2 2.57.04 5.11.01 7.7 0 .85.05 1.64.22 2.48.07.34.37 1.82.28 1.9-.61.57-.43 1.27.4 1.45.92.2 2.1-.1 2.79-.75 1.2-1.12.64-2.87.36-4.28-.46-2.36.1-5 .02-7.41zM52.2 40.79c-.08-2-.78-3.9-.79-5.93-.01-2.32.18-4.63-.15-6.95-.11-.73-4.1.1-3.96 1.06.31 2.13.2 4.27.16 6.42-.03 2.06.48 3.93.74 5.95.27 2.08-.09 4.2.15 6.27.11.98.76 2.77.09 3.62-.42.53 1.48.34 1.57.33.77-.15 1.8-.4 2.32-1.05.66-.84.2-2.45.06-3.39-.32-2.08-.12-4.23-.2-6.33zM68.67 37.44c-2.08-2.81-5.94-.79-8.64-1.56-1.39-.4-1.4-2.29-1.4-3.42 0-1.44-.12-2.76-.28-4.19-.12-1.06-.02-2.14.76-2.93.14-.14.86-.34.81-.34a8.1 8.1 0 0 1 1.08-.1c1.56-.06 4.65.24 4.06 2.51-.27 1.02 3.62.44 3.9-.64 1.23-4.64-7.34-3.75-9.77-3.1-2.23.59-4.69 1.86-4.81 4.43-.07 1.23.27 2.4.32 3.62.06 1.4-.2 2.8.3 4.16 1.09 3 5.56 1.59 7.84 1.76 3.88.29 2.73 5.52 2.77 7.95.03 1.3 1.2 3.46.22 4.55-.6.67-2 .7-2.82.78-.82.06-2.22.31-2.77-.47-1-1.43.1-3.83-.12-5.47-.12-.94-4.1-.1-3.95 1.06.34 2.65-1.41 6.2 2.42 6.65 2.47.3 5.24-.16 7.57-.94 1.2-.4 2.33-.95 3.27-1.8 1.05-.96.7-2.38.42-3.59-.68-2.94.74-6.33-1.18-8.92zM86.16 37.25c-.13-3.81-.7-7.58-.72-11.4 0-2-4-1.32-3.99.34.02 3.64.5 7.24.69 10.87l.01.22c-1.97-.02-3.93.18-5.9.25.2-4.68-.62-9.31-.44-13.99.02-.58-3.91-.09-3.95 1.06-.18 4.52.59 9 .45 13.52-.06 2.15-.25 4.3-.26 6.46 0 1.1.17 2.2.33 3.29.15 1 .49 2.35.18 3.35-.23.78 3.6.3 3.9-.7.55-1.8-.22-4.08-.4-5.9-.18-1.73-.05-3.52.08-5.29 2.05-.13 4.1-.3 6.13-.01.1 1.39.2 2.78.33 4.17.1 1.17.18 2.33.2 3.5.01 1.03.14 2.53-.23 3.5-.78 2.07 3.18 1.9 3.76.37.71-1.89.5-4.24.39-6.22-.16-2.47-.48-4.92-.56-7.4zM103.24 41.76c-.95-2.78-2.4-5.22-3.65-7.87 1.01-1.96 2.04-3.93 2.96-5.94.84-1.82 1.46-3.85 3.1-5.14.59-.45.56-.9-.25-.96-.88-.06-2.08.2-2.8.75a10.84 10.84 0 0 0-3.22 4.3c-.94 2.08-1.92 4.11-2.94 6.14l-.23.45c-.5.31-.8.77-.64 1.27a72.02 72.02 0 0 1-2.52 4.66c-.3-5.59-.97-11.17-1.17-16.75-.04-1.29-4-.49-3.95 1.05.25 6.94 1.23 13.85 1.3 20.78l-.05.05c-.3.31-.19.5.05.6 0 1.77-.06 3.54-.2 5.31-.48.75.46 1.15 1.09 1.15h.1c.74 0 2.64-.35 2.74-1.38.19-2.12.25-4.23.23-6.35a31.66 31.66 0 0 0 4.1-5.68c.76 1.5 1.49 3 2 4.62.87 2.77 2.32 5.31 3.16 8.09.55 1.82 4.5.74 3.95-1.06-.84-2.78-2.22-5.34-3.16-8.09zM126.96 37.09c-.21-.85-1.39-.86-2.3-.78l-.03-1.02c-.13-2.68-.17-5.43-.4-8.1-.2-2.48-1.6-3.37-4-3.28-2.44.1-5.28.53-7.55 1.42-2.63 1.02-4.1 2.96-4.6 5.73-.56 3.04.24 6.28.37 9.33.16 3.54.07 7.08.07 10.62 0 .57 3.95.03 3.95-1.06 0-2.8.04-5.6 0-8.4-.02-.83-.05-1.65-.1-2.47 1.38-.6 3.72.01 5.1.14 1.1.1 2.18-.17 3.26-.3.03 2.34.11 4.69.2 7.02.06 1.19.49 3.56-.35 4.55-.44.52 1.5.34 1.57.33.8-.15 1.78-.4 2.32-1.05.96-1.13.46-3.82.41-5.17-.08-1.93-.1-3.86-.14-5.8 1.16-.14 2.44-.86 2.22-1.71zm-14.75-.16c-.1-1.25-.22-2.51-.3-3.77-.17-2.36.11-5.64 2.3-7.07.59-.38 1.7-.31 2.38-.44.98-.18 1.97-.4 2.85.2 1.23.8.92 3.68.92 4.9 0 2.03.21 4.04.32 6.06-.56.06-1.13.1-1.7.08-2.31-.05-4.59-.42-6.77.04zM48.77 25.18a3.2 3.2 0 0 0 1.5-.53l.25-.22c.52-.34.98-.84.73-1.38-.5-1.11-.42-2.25-.41-3.44 0-.97-.98-1.26-1.8-1.19-.73.07-2.19.6-2.2 1.54 0 1-.07 2.03.11 3.02-.05.11-.07.24-.1.36a.7.7 0 0 0 .14.6v.13l.02.33a.9.9 0 0 0 .43.54c.4.24.89.28 1.33.24z"/>
    </g>
  </g>
</svg>
