<svg xmlns="http://www.w3.org/2000/svg" width="112.39" height="46.09" viewBox="19.14 15 112.39 46.09">
  <path d="M129.36 56.88c4.4.87.85-35.85.15-38.3-1.96-6.58-26.68-2.15-32.18-1.72-12.72.98-25.19-.96-37.61-.38-6.2.3-34.85-1.81-37.52 1.99-5.05 7.2-2.65 25.8-1.28 35.07-4.04.78 2.31 4.16 3.14 4.9 6.31 2.2 16.36-.22 23 .4 15.44 1.47 31.8-2.2 47.28-.96 4.5 1.14 9.6 1.02 14.23 1.24 3.41 5.57 19.66-2.46 20.8-2.24-.1-.02.5.1 0 0z"/>
  <g fill="#FFF">
    <path d="M45.2 39.41c-.08-2.54-.49-5.07-.46-7.62.03-2.06.37-4.19-.34-6.17l.14-.67c.18-1-3.1-.47-3.63.44-.32.27-.49.58-.35.9l.1.26a74.4 74.4 0 0 1-2.49 8.93c-.38 1.13-.84 2.23-1.23 3.35-.56-1.05-1.11-2.08-1.56-3.2-1.3-3.26-2.48-6.56-4.07-9.69.18-1.45-3.04-1.3-3.67.03-.77 1.6-.67 3.23-.42 4.95.28 1.94.33 3.84.36 5.8.04 3.77.34 7.53.4 11.3-.34.38-.44.84-.1 1.31a3 3 0 0 0 .55.52c.86.7 3.32.1 3.32-1.2-.02-3.91-.3-7.82-.4-11.73l-.02-1.15.16.41c.6 1.52 1.24 3 2.07 4.42.83 1.4 1.24 2.9 1.71 4.44-.18.2-.29.44-.22.67-.04.17.07.28.24.34.6.52 1.75.26 2.38 0 .27-.12.53-.25.78-.4.33-.2.84-.65.7-1.1l-.09-.27c.45-1.2.68-2.46.92-3.73.26-1.36.74-2.64 1.23-3.92l.15 1.76c.19 2.42.03 4.81 0 7.23 0 .8.05 1.55.21 2.34.07.33.35 1.72.27 1.8-.58.53-.41 1.18.36 1.35.87.2 1.98-.1 2.63-.7 1.14-1.05.6-2.7.34-4.02-.43-2.23.1-4.71.02-6.98zM53.13 40.06c-.07-1.9-.72-3.67-.73-5.58-.01-2.19.17-4.35-.15-6.53-.1-.69-3.85.1-3.72 1 .3 2 .2 4 .16 6.02-.04 1.94.44 3.7.69 5.6.25 1.96-.08 3.95.14 5.9.1.92.71 2.6.08 3.4-.4.5 1.4.32 1.48.31.73-.13 1.7-.37 2.19-.99.61-.78.18-2.3.05-3.18-.3-1.96-.11-3.98-.19-5.95zM68.63 36.9c-1.96-2.64-5.59-.74-8.13-1.46-1.3-.37-1.32-2.15-1.31-3.22 0-1.35-.11-2.6-.26-3.94-.12-1-.03-2 .7-2.75.14-.14.82-.32.77-.32.34-.06.64-.08 1.01-.1 1.47-.05 4.38.23 3.82 2.36-.25.96 3.41.41 3.68-.6 1.15-4.36-6.92-3.53-9.2-2.92-2.1.56-4.4 1.75-4.52 4.17-.06 1.16.25 2.26.3 3.4.06 1.33-.18 2.64.28 3.91 1.02 2.84 5.24 1.5 7.38 1.66 3.65.27 2.56 5.2 2.6 7.48.03 1.22 1.13 3.26.2 4.28-.56.63-1.88.66-2.64.73-.78.06-2.1.3-2.6-.44-.95-1.35.08-3.6-.12-5.15-.12-.88-3.86-.09-3.72 1 .33 2.5-1.33 5.83 2.28 6.26 2.32.27 4.93-.16 7.12-.88a8.4 8.4 0 0 0 3.08-1.7c.98-.9.65-2.23.4-3.37-.65-2.77.69-5.96-1.12-8.4zM85.07 36.73c-.11-3.59-.65-7.13-.67-10.72 0-1.88-3.76-1.24-3.75.32.01 3.43.47 6.8.64 10.22l.01.2c-1.85-.01-3.7.17-5.55.24.2-4.4-.58-8.76-.4-13.15.01-.55-3.69-.09-3.73 1-.16 4.24.56 8.46.43 12.7-.06 2.03-.23 4.05-.24 6.08-.01 1.04.16 2.07.3 3.1.15.94.47 2.2.18 3.14-.22.73 3.38.28 3.67-.66.51-1.68-.22-3.83-.39-5.54-.16-1.63-.04-3.31.08-4.98 1.93-.12 3.85-.28 5.77 0 .08 1.3.19 2.6.3 3.92.1 1.1.18 2.2.2 3.3 0 .96.13 2.36-.22 3.28-.73 1.95 3 1.79 3.54.34.66-1.77.47-3.98.36-5.85-.14-2.32-.45-4.62-.53-6.95zM101.14 40.97c-.9-2.62-2.25-4.91-3.43-7.4.95-1.85 1.91-3.7 2.78-5.59.79-1.71 1.37-3.62 2.92-4.83.55-.42.52-.85-.24-.9a4.22 4.22 0 0 0-2.63.7A10.2 10.2 0 0 0 97.5 27c-.88 1.95-1.8 3.86-2.76 5.77l-.21.42c-.47.3-.75.72-.6 1.2a67.15 67.15 0 0 1-2.38 4.37c-.28-5.25-.9-10.5-1.1-15.75-.03-1.2-3.76-.45-3.7 1 .22 6.52 1.15 13.02 1.21 19.53l-.04.05c-.29.3-.18.47.05.57 0 1.66-.06 3.33-.2 4.99-.45.7.44 1.08 1.03 1.08h.09c.7 0 2.49-.33 2.58-1.3.18-1.99.24-3.98.22-5.97a29.84 29.84 0 0 0 3.85-5.34c.72 1.4 1.4 2.82 1.89 4.35.81 2.6 2.18 4.99 2.97 7.6.51 1.71 4.23.7 3.71-1-.79-2.6-2.09-5.02-2.97-7.6zM123.44 36.57c-.2-.79-1.3-.8-2.15-.73l-.04-.95c-.12-2.53-.15-5.1-.37-7.63-.2-2.33-1.5-3.16-3.77-3.08-2.29.1-4.96.5-7.1 1.34-2.47.96-3.85 2.78-4.32 5.39-.53 2.86.22 5.9.35 8.77.15 3.33.06 6.66.06 9.98 0 .55 3.72.03 3.72-1 0-2.63.04-5.26 0-7.9-.02-.77-.05-1.54-.1-2.31 1.3-.57 3.5 0 4.8.13 1.04.1 2.05-.15 3.07-.27.02 2.19.1 4.4.2 6.59.04 1.12.44 3.35-.34 4.28-.42.49 1.4.32 1.47.31.75-.14 1.67-.38 2.19-.99.9-1.06.43-3.6.38-4.86-.08-1.81-.1-3.63-.14-5.44 1.1-.15 2.3-.82 2.1-1.63zm-13.87-.14l-.29-3.55c-.15-2.21.11-5.3 2.18-6.64.55-.36 1.59-.3 2.23-.42.92-.17 1.86-.37 2.69.18 1.14.76.86 3.47.86 4.62 0 1.9.2 3.8.3 5.7-.53.05-1.06.08-1.6.07-2.17-.05-4.31-.4-6.37.04zM49.91 25.37a3 3 0 0 0 1.4-.5l.25-.2c.5-.32.92-.79.69-1.3-.48-1.04-.4-2.1-.4-3.23.01-.91-.9-1.18-1.68-1.12-.69.07-2.06.56-2.07 1.45 0 .94-.07 1.91.1 2.84l-.1.33c-.05.2.02.4.14.56v.13l.02.32c.07.22.2.39.4.5.37.22.84.26 1.26.22z"/>
  </g>
</svg>
