<svg xmlns="http://www.w3.org/2000/svg" width="85.59" height="35.03" viewBox="32.46 20.22 85.59 35.03">
  <path d="M36.64 46.52c-.02-3.48-.26-6.94-.36-10.41l-.02-1.02.15.36c.54 1.35 1.1 2.66 1.84 3.92.73 1.25 1.1 2.58 1.52 3.94-.16.18-.26.39-.2.6-.03.15.06.24.21.3.54.46 1.55.23 2.12 0 .24-.1.47-.23.7-.36.28-.18.74-.57.6-.98l-.07-.23c.4-1.07.6-2.18.82-3.31.23-1.2.66-2.35 1.09-3.49l.13 1.56c.17 2.15.03 4.27 0 6.43 0 .7.05 1.37.19 2.07.06.29.31 1.52.23 1.58-.51.48-.36 1.06.33 1.21a2.8 2.8 0 0 0 2.33-.62c1.01-.94.53-2.4.3-3.58-.38-1.97.08-4.18.02-6.18-.06-2.26-.43-4.5-.4-6.77.03-1.83.33-3.72-.3-5.47l.12-.6c.16-.88-2.75-.42-3.21.39-.3.23-.44.52-.32.8.04.07.06.15.09.22a65.77 65.77 0 0 1-2.2 7.93c-.35 1-.76 1.98-1.1 2.98-.5-.93-.99-1.85-1.39-2.85-1.15-2.89-2.2-5.8-3.6-8.6.15-1.28-2.7-1.14-3.27.03-.68 1.42-.59 2.86-.37 4.4.26 1.71.3 3.4.32 5.14.04 3.35.3 6.69.35 10.04-.3.33-.39.74-.07 1.16.13.18.3.32.48.46.75.63 2.94.1 2.94-1.05zM54.83 28.14c-.08-.6-3.41.09-3.3.89.26 1.78.17 3.56.14 5.35-.03 1.72.4 3.28.62 4.97.22 1.74-.08 3.5.12 5.24.1.81.63 2.31.08 3.02-.36.44 1.23.28 1.3.27.65-.12 1.51-.33 1.94-.87.56-.7.17-2.05.05-2.82-.27-1.74-.1-3.54-.16-5.29-.06-1.68-.65-3.25-.65-4.95-.01-1.95.15-3.87-.14-5.8zM57.96 34.8c.9 2.5 4.65 1.32 6.55 1.46 3.24.24 2.27 4.6 2.31 6.64.02 1.09 1 2.9.18 3.8-.5.56-1.67.59-2.35.65-.69.05-1.86.26-2.31-.4-.84-1.19.07-3.2-.1-4.56-.1-.78-3.43-.08-3.3.88.29 2.21-1.18 5.18 2.02 5.56a15.2 15.2 0 0 0 6.32-.78c1-.34 1.94-.8 2.73-1.51.87-.8.58-1.98.35-2.99-.57-2.46.61-5.29-.99-7.45-1.74-2.35-4.96-.66-7.21-1.3-1.16-.33-1.18-1.91-1.17-2.86 0-1.2-.1-2.3-.23-3.5-.1-.88-.02-1.78.63-2.44.12-.12.72-.28.68-.28.3-.05.57-.06.9-.07 1.3-.06 3.88.19 3.38 2.09-.22.85 3.03.36 3.27-.53 1.02-3.88-6.14-3.13-8.16-2.6-1.86.5-3.92 1.56-4.02 3.7-.06 1.03.23 2.01.27 3.03.05 1.15-.16 2.32.25 3.45zM72.41 36.66c-.05 1.8-.2 3.6-.22 5.4 0 .91.15 1.84.28 2.74.12.85.4 1.97.15 2.8-.2.65 3 .24 3.26-.59.46-1.5-.2-3.4-.34-4.92-.15-1.45-.04-2.94.07-4.42 1.7-.1 3.42-.24 5.12 0 .07 1.16.16 2.31.27 3.47.09.98.15 1.95.16 2.93.02.86.12 2.1-.18 2.92-.65 1.73 2.65 1.59 3.13.3.6-1.58.43-3.54.33-5.2-.13-2.06-.4-4.1-.47-6.16-.1-3.19-.58-6.33-.6-9.51 0-1.67-3.33-1.1-3.33.28.01 3.04.42 6.04.57 9.07l.01.18c-1.64-.01-3.28.15-4.93.2.18-3.9-.51-7.76-.36-11.66.02-.5-3.26-.08-3.3.88-.14 3.78.5 7.52.38 11.3zM86.5 42.03c-.26.26-.17.42.04.5 0 1.48-.05 2.96-.18 4.43-.4.63.39.96.91.96h.08c.63 0 2.21-.3 2.3-1.15.15-1.77.2-3.53.19-5.3a26.53 26.53 0 0 0 3.41-4.74 25 25 0 0 1 1.68 3.86c.73 2.3 1.94 4.43 2.64 6.75.46 1.52 3.75.62 3.3-.89-.7-2.32-1.86-4.46-2.64-6.75-.8-2.32-2-4.36-3.05-6.57.85-1.64 1.7-3.28 2.47-4.96.7-1.52 1.22-3.21 2.6-4.28.48-.38.46-.76-.22-.8a3.71 3.71 0 0 0-2.33.62 9.04 9.04 0 0 0-2.7 3.6c-.78 1.72-1.6 3.42-2.45 5.11l-.2.37c-.4.27-.65.65-.53 1.07a60.47 60.47 0 0 1-2.1 3.88c-.26-4.66-.8-9.31-.97-13.98-.04-1.07-3.35-.4-3.3.89.2 5.78 1.02 11.55 1.08 17.34l-.04.04zM118.03 35.8c-.18-.7-1.16-.72-1.92-.65l-.03-.85c-.1-2.24-.13-4.53-.32-6.76-.18-2.07-1.34-2.81-3.35-2.74-2.04.08-4.4.45-6.3 1.19a5.89 5.89 0 0 0-3.84 4.78c-.47 2.54.2 5.24.3 7.79.14 2.95.07 5.9.06 8.86 0 .48 3.3.03 3.3-.89 0-2.33.04-4.67 0-7-.01-.7-.04-1.38-.09-2.07 1.16-.5 3.11.01 4.26.12.93.1 1.83-.14 2.73-.24.02 1.94.1 3.9.17 5.85.04 1 .4 2.97-.3 3.8-.36.43 1.25.29 1.32.28.66-.13 1.48-.34 1.93-.87.8-.94.39-3.2.34-4.32-.06-1.6-.08-3.22-.12-4.83.97-.14 2.04-.73 1.86-1.45zm-6.67-.16c-1.92-.05-3.82-.35-5.65.03-.08-1.05-.18-2.1-.25-3.15-.13-1.96.1-4.7 1.93-5.9.49-.31 1.41-.26 1.98-.36.82-.15 1.65-.33 2.38.16 1.02.67.77 3.08.77 4.1 0 1.69.18 3.37.26 5.06-.46.04-.94.07-1.42.06zM51.16 24.32c-.05.18.01.36.12.5v.11l.01.29c.07.19.19.34.37.44.32.2.73.23 1.1.2.44-.04.89-.2 1.25-.44l.21-.18c.44-.29.82-.7.62-1.15-.43-.93-.36-1.88-.35-2.87 0-.8-.82-1.05-1.5-.99-.61.05-1.83.49-1.84 1.28 0 .83-.06 1.7.1 2.52l-.1.3zM112.74 53.5c-1.56-.58-3.29-.61-4.85-.78-1.6-.17-3.25-.41-4.89-.56-1.64.05-3.3.02-4.97.13l-4.88.26c-6.49.3-13 .26-19.52.11-6.51-.12-13.04-.48-19.63-.45-3.29 0-6.56.1-9.86.25-1.63.28-3.24.5-4.9.91-1.62.4-3.15.9-4.8 1.05 1.63.36 3.34.29 4.96.3 1.58 0 3.25.14 4.88.23 3.23-.18 6.48-.25 9.73-.25 6.49-.03 13.01.32 19.56.45 6.55.14 13.12.18 19.69-.11l4.9-.27c1.6-.07 3.2-.13 4.83-.07 1.63-.15 3.26-.33 4.92-.53 1.67-.24 3.22-.63 4.86-.51h.07v-.05c.03-.18-.03-.32-.03-.48-.04.12-.04.26-.07.38z"/>
</svg>
