<svg xmlns="http://www.w3.org/2000/svg" xmlns:xlink="http://www.w3.org/1999/xlink">
  <symbol id="search" viewBox="-1 -1 18 18">
  <path d="M16.47 14.93l-3.42-3.42a7.7 7.7 0 1 0-1.54 1.54l3.42 3.42c.2.2.42.33.77.33.6 0 1.1-.5 1.1-1.1 0-.24-.06-.5-.33-.77zM1.4 6.9a5.5 5.5 0 1 1 11 0 5.5 5.5 0 0 1-11 0z"/>
  </symbol>

  <view id="search-view" viewBox="0 0 18 18" />
  <view id="search-view-green" viewBox="50 0 18 18" />

  <use xlink:href="#search" width="18" height="18" x="0" y="0"></use>
  <use xlink:href="#search" style="fill: #63d1bb" width="18" height="18" x="50" y="0"></use>

  <symbol id="cart" viewBox="264 371 20 19">
  <path d="M283.75 378.19h-3.15l-3.4-6.81a.75.75 0 1 0-1.35.67l3.07 6.14h-9.14l3.08-6.14a.75.75 0 0   0-1.34-.67l-3.41 6.81h-3.15a.75.75 0 0 0 0 1.5h.15l.86 3a.74.74 0 0 0-.32.59c0 .4.31.7.7.74l1.66   5.79h12.7l1.65-5.8c.39-.02.7-.34.7-.73a.74.74 0 0 0-.32-.6l.86-3h.15a.75.75 0 1 0 0-1.49zm-4.18   10.12h-10.43l-1.23-4.28h12.88l-1.22 4.28zm1.65-5.78h-13.74l-.8-2.84h15.35l-.8 2.84z"/>
  </symbol>

  <view id="cart-view" viewBox="100 0 20 19" />
  <view id="cart-view-green" viewBox="150 0 20 19" />

  <use xlink:href="#cart" width="20" height="19" x="100" y="0"></use>
  <use xlink:href="#cart" style="fill: #63d1bb" width="20" height="19" x="150" y="0"></use>

  <symbol id="interior" viewBox="-259.4 -19.68 40.22 62.41">
  <path d="M-244.23 18.28c-.28.97-.24 2.2.03 3.64.5 2.64 1.69 6.04 2.36 9.67h5.06c.7-3.64 1.95-7.05 2.47-9.68.29-1.45.33-2.66.04-3.62-.27-.9-.89-1.62-2.02-2.3h-6c-1.07.68-1.67 1.39-1.94 2.3zM-232.4 38.28h-13.8c-1.29 0-2.3.97-2.3 2.23v2.23H-230.1V40.5c0-1.26-1-2.23-2.3-2.23zM-225.26-17.45H-237a2.25 2.25 0 0 0-2.3-2.23c-1.29 0-2.3.99-2.3 2.23h-11.74l-6.07 25.52c.79-.46 1.58-1 2.63-1 1.36 0 2.24.83 2.92 1.38.68.56 1.16.85 1.45.85.3 0 .77-.28 1.45-.83.68-.55 1.56-1.36 2.92-1.36 1.34 0 2.23.8 2.91 1.35.69.55 1.17.84 1.46.84.14 0 .33-.07.58-.21.24-.14.53-.35.87-.63.5-.4 1.14-.96 1.99-1.22.28-.08.59-.13.93-.13 1.34 0 2.24.8 2.92 1.35.68.55 1.16.84 1.45.84.29 0 .76-.3 1.44-.85.69-.55 1.57-1.36 2.93-1.36 1.35 0 2.24.81 2.92 1.37.34.27.63.49.87.63s.43.21.57.21c.3 0 .77-.3 1.45-.85.68-.56 1.56-1.39 2.93-1.39 1.04 0 1.83.54 2.63 1l-6.08-25.5zM-235.88 33.82h-6.87a1.1 1.1 0 0 0-1.15 1.11c0 .64.5 1.12 1.15 1.12h6.9a1.1 1.1 0 0 0 1.15-1.11c0-.64-.49-1.12-1.15-1.12h-.03zM-239.3 9.34c-.14 0-.33.07-.57.2-.16.1-.37.27-.57.42v3.73h2.3V9.96c-.51-.38-.91-.62-1.16-.62z"/>
  </symbol>

  <view id="interior-view" viewBox="200 0 40.22 62.41" />
  <use xlink:href="#interior" width="40.22" height="62.41" x="200" y="0"></use>

  <symbol id="toy" viewBox="226 226.19 60 59.62">
  <path d="M226 269.87l27.44 15.93v-23.34L226 246.52v23.35zm51.35-31.24v2.45c0 1.82-3.46 3.29-7.73 3.29-4.27 0-7.73-1.47-7.73-3.29v-4.06h.02c.26 1.72 3.6 3.07 7.7 3.07 4.28 0 7.73-1.47 7.73-3.28 0-1.82-3.45-3.29-7.72-3.29-.34 0-.68.01-1 .03l-4.98-2.89v3.09c0 1.82-3.46 3.29-7.72 3.29-2.69 0-5.05-.58-6.44-1.47-.2-.2-.44-.4-.73-.58a1.8 1.8 0 0 1-.56-1.24v-2.99l-4.81 2.8c-.35-.02-.7-.04-1.06-.04-4.26 0-7.72 1.47-7.72 3.3 0 1.8 3.46 3.28 7.72 3.28 4.1 0 7.45-1.36 7.71-3.08h.02v4.06c0 1.82-3.45 3.3-7.73 3.3-4.26 0-7.72-1.48-7.72-3.3v-2.42l-5.95 3.45 27.53 15.99 27.35-15.88-6.18-3.6zm-13.65 10.16c0 1.82-3.46 3.29-7.72 3.29-4.27 0-7.73-1.47-7.73-3.29v-4.06h.02c.26 1.72 3.6 3.08 7.7 3.08s7.45-1.36 7.71-3.08h.02v4.06zm-5.14 13.88v23.14L286 269.87v-23.14l-27.44 15.94zm-2.64-29.9c4.27 0 7.72-1.48 7.72-3.3 0-1.8-3.45-3.28-7.72-3.28s-7.73 1.47-7.73 3.29c0 1.81 3.46 3.28 7.73 3.28"/>
  </symbol>

  <view id="toy-view" viewBox="250 0 60 59.62" />
  <use xlink:href="#toy" width="60" height="59.62" x="250" y="0"></use>

</svg>
